<svg xmlns="http://www.w3.org/2000/svg" viewBox="0 0 2384.2 560.5" xml:space="preserve"><path d="M811.1 495.8h-12.2v31.7h-9.2v-73.7h18.9c18.2 0 27.6 7.1 27.6 20.7 0 10.5-5.6 16.6-16.1 19.7l19.9 33.3h-11l-17.9-31.7zm-1.3-7.2c10.6 0 16.7-4 16.7-14.1 0-9.3-5.4-13.4-17.9-13.4H799v27.5h10.8zm81.9-34.8h-39.3v73.7h40V520h-30.8v-26.3h25.2v-7.5h-25.2v-24.8h29l1.1-7.6zm56 7.2c-6-5.5-12.3-8.5-22.4-8.5-13.4 0-22.8 7.9-22.8 18.9 0 11.2 7.2 16.7 21.6 21.1 12.6 3.9 16.3 7.2 16.3 14.8 0 9.1-7.3 13.7-16.3 13.7-8.1 0-13.9-2.9-19.4-7.6l-5.2 5.9c6.1 5.9 14.2 9.4 24.7 9.4 16.2 0 25.8-8.9 25.8-21.7 0-13.8-9.5-18.5-21.6-22.2-13.3-4.1-16.4-7.2-16.4-13.7 0-7.2 5.9-10.9 13.7-10.9 6.2 0 11.3 1.9 16.9 6.4l5.1-5.6m59.2-7.2h-52.1v7.9H976v65.7h9.2v-65.7h20.7l1-7.9zm67.3 36.9c0 24.3-12.4 38-30.8 38-18.3 0-30.8-13.3-30.8-37.9 0-24.3 12.6-38.3 30.8-38.3 18.3 0 30.8 13.4 30.8 38.2m-51.8.1c0 21.4 8.6 30.2 21 30.2 12.8 0 21-8.8 21-30.3s-8-30.5-21-30.5c-12.6 0-21 9-21 30.6m88.9 5h-12.2v31.7h-9.2v-73.7h18.9c18.2 0 27.6 7.1 27.6 20.7 0 10.5-5.6 16.6-16.1 19.7l19.9 33.3h-11l-17.9-31.7zm-1.4-7.2c10.6 0 16.7-4 16.7-14.1 0-9.3-5.4-13.4-17.9-13.4h-9.6v27.5h10.8zm51.9-34.8h-9.2v73.7h9.2v-73.7zm71.3 0h-8.7V495c0 9.1 1 20.3 1.2 22.4l-31.3-63.6h-12.1v73.7h8.7V492c0-13.6-.7-22.1-1.3-27.9l31 63.5h12.4v-73.8zm68.9 6.6c-6.2-5.1-12.2-7.9-21.9-7.9-16.3 0-31.4 13.1-31.4 38 0 25.5 11.9 38.2 30.1 38.2 10 0 17.6-2.5 24.2-6.4v-35.4h-23.7l1.1 7.6h13.4v23c-4.3 2.5-9.1 3.5-14.3 3.5-13.3 0-20.9-9-20.9-30.5 0-22.1 10.9-30.3 21.7-30.3 6.6 0 11.1 1.8 16.3 5.9l5.4-5.7m103.1-6.6h-12.6l-15.4 54.5-16.2-54.5h-12.6l-6.2 73.7h8.8l2.6-33.2c1-10.9 1.6-22.8 1.7-31.2l17.3 55.9h8.7l16.6-55.8c.1 6.2 1 18.8 2 30.5l2.8 33.7h9l-6.5-73.6zm58 54.8h-28.7l-5.8 18.8h-9.4l23.9-73.7h11.8l23.8 73.7h-9.8l-5.8-18.8zm-2.4-7.6-12-39.5-12 39.5h24zm49.6-5.2h-12.2v31.7h-9.2v-73.7h18.9c18.2 0 27.6 7.1 27.6 20.7 0 10.5-5.6 16.6-16.1 19.7l19.9 33.3h-11l-17.9-31.7zm-1.4-7.2c10.6 0 16.7-4 16.7-14.1 0-9.3-5.4-13.4-17.9-13.4h-9.6v27.5h10.8zm51.9-34.8h-9.2v73.7h9.2v-73.7zm71.3 0h-8.7V495c0 9.1 1 20.3 1.2 22.4l-31.3-63.6h-12.1v73.7h8.7V492c0-13.6-.7-22.1-1.3-27.9l31 63.5h12.4v-73.8zm59.7 0h-39.3v73.7h40V520h-30.8v-26.3h25.2v-7.5h-25.2v-24.8h29l1.1-7.6zm91.7 52.8c0 15.3-11.7 20.9-28.6 20.9h-20.2v-73.7h17.1c17.9 0 28.4 5.8 28.4 18.5 0 9.2-6.4 14.7-13.7 16.2 8.7 1.4 17 5.6 17 18.1m-39.6-45.4v24.1h12c8.5 0 14.8-4.3 14.8-12.3 0-9.2-6.6-11.8-17.9-11.8h-8.9zm29.8 45.4c0-10.5-7.7-14.1-16.8-14.1h-13V520h11c11.1 0 18.8-2.6 18.8-13.4m33.5-52.8h-9.2v73.7h9.2v-73.7zm77.3 36.9c0 24.3-12.4 38-30.8 38-18.3 0-30.8-13.3-30.8-37.9 0-24.3 12.6-38.3 30.8-38.3 18.3 0 30.8 13.4 30.8 38.2m-51.8.1c0 21.4 8.6 30.2 21 30.2 12.8 0 21-8.8 21-30.3s-8-30.5-21-30.5c-12.7 0-21 9-21 30.6m118.9-.6c0 30.2-18.6 37.3-34.4 37.3h-17.1v-73.7h15.2c18.4 0 36.3 5.9 36.3 36.4m-42.3-28.9v58.8h8.7c11.8 0 23.7-5.1 23.7-29.9 0-25.4-12.4-28.9-24.4-28.9h-8zm67-7.5h-9.2v73.7h9.2v-73.7zm67.8 0h-9.4l-19.1 63.7-18.9-63.7h-10.1l23.9 73.7h10.1l23.5-73.7zm49.6 0h-39.3v73.7h40V520h-30.8v-26.3h25.2v-7.5h-25.2v-24.8h29l1.1-7.6zm37.3 42h-12.2v31.7h-9.2v-73.7h18.9c18.2 0 27.6 7.1 27.6 20.7 0 10.5-5.6 16.6-16.1 19.7l19.9 33.3h-11l-17.9-31.7zm-1.4-7.2c10.6 0 16.7-4 16.7-14.1 0-9.3-5.4-13.4-17.9-13.4h-9.6v27.5h10.8zm82.8-27.6c-6-5.5-12.3-8.5-22.4-8.5-13.4 0-22.8 7.9-22.8 18.9 0 11.2 7.2 16.7 21.6 21.1 12.6 3.9 16.3 7.2 16.3 14.8 0 9.1-7.3 13.7-16.3 13.7-8.1 0-13.9-2.9-19.4-7.6l-5.2 5.9c6.1 5.9 14.2 9.4 24.7 9.4 16.2 0 25.8-8.9 25.8-21.7 0-13.8-9.5-18.5-21.6-22.2-13.3-4.1-16.4-7.2-16.4-13.7 0-7.2 5.9-10.9 13.7-10.9 6.2 0 11.3 1.9 16.9 6.4l5.1-5.6m25.7-7.2h-9.2v73.7h9.2v-73.7zm63.2 0h-52.1v7.9h21.2v65.7h9.2v-65.7h20.7l1-7.9zm56.9 0h-9.7l-18.3 37.1-18.4-37.1h-10.3l23.7 45.3v28.4h9.4V499l23.6-45.2z" fill="#999"/><path d="M957.5 211.7h-92.8v132.5h-73.2V35h73.2v119.6h92.8V35h73.2v309.3h-73.2V211.7zm294.1 132.5h77.7L1235.9 35h-88.8l-93.3 309.3h75.9l15.6-66.5h90.6l15.7 66.4zm-93.8-119.6L1190.4 88l32.6 136.6h-65.2zM1541.6 35H1352v309.3h189.7v-52.7h-116.5v-79h95.1v-51.3h-95.1V87.2h108.9l7.5-52.2zm213.4 0h-73.2v259.7c0 36.6-5.8 57.6-46 73.2l19.6 51.8c52.2-17 99.5-44.2 99.5-122.3V35zm320.9 154.4c0-103.1-52.2-162-139.7-162-87 0-139.2 61.1-139.2 162 0 103.1 52.2 162.4 139.2 162.4 87.4 0 139.7-61.1 139.7-162.4m-202.2 0c0-78.1 21.4-108.4 62.5-108.4 41.5 0 62.9 30.3 62.9 108.4 0 78.5-21 108.9-62.9 108.9-40.2 0-62.5-30.4-62.5-108.9m510.5 0c0-103.1-52.2-162-139.7-162-87 0-139.2 61.1-139.2 162 0 103.1 52.2 162.4 139.2 162.4 87.5 0 139.7-61.1 139.7-162.4m-202.1 0c0-78.1 21.4-108.4 62.5-108.4 41.5 0 62.9 30.3 62.9 108.4 0 78.5-21 108.9-62.9 108.9-40.2 0-62.5-30.4-62.5-108.9" fill="#10629e"/><path d="M384.9 0h-87.2L0 504.2l38.4 56.3h605.9l39.7-56.3L384.9 0zM342 490.4H91.2L342 58.1l250.8 432.2H342zm197.2-40.2-10.9 15.5h-167l-10.6-15.5 82-138.9h24l82.5 138.9zm-205.6-.1-11 15.5H155.8l-10.6-15.5 82-138.9h24l82.4 138.9zm102.6-174.4-10.9 15.5h-167l-10.6-15.5 82-138.9h24l82.5 138.9z" fill="#0c639e"/><path fill="#77ae54" d="M333.4 418.8h17.5L411 317.1l-7.8-11.4H281l-8 11.4z"/></svg>