<svg xmlns="http://www.w3.org/2000/svg" width="200" height="50"><title>Haejoo Group</title><path fill="#10629e" d="M77.673 23.518h-7.902V34.89h-6.234V8.352h6.234v10.265h7.902V8.352h6.234v26.547h-6.234V23.518ZM102.72 34.89h6.617l-7.954-26.538H93.82l-7.946 26.547h6.464l1.328-5.708h7.716l1.337 5.699Zm-7.988-10.265 2.776-11.724 2.776 11.724h-5.552Zm32.684-16.273H111.27v26.547h16.155v-4.524h-9.921v-6.78h8.098v-4.403h-8.098v-6.36h9.274l.638-4.48Zm18.174 0h-6.234v22.29c0 3.14-.494 4.943-3.918 6.282l1.67 4.446c4.445-1.46 8.473-3.794 8.473-10.497V8.352Zm27.327 13.252c0-8.849-4.445-13.904-11.896-13.904-7.41 0-11.855 5.244-11.855 13.904 0 8.849 4.446 13.938 11.855 13.938 7.443 0 11.896-5.244 11.896-13.938m-17.219 0c0-6.703 1.822-9.304 5.323-9.304 3.534 0 5.356 2.6 5.356 9.304 0 6.737-1.788 9.346-5.356 9.346-3.424 0-5.323-2.609-5.323-9.346m43.474 0c0-8.849-4.445-13.904-11.897-13.904-7.409 0-11.854 5.244-11.854 13.904 0 8.849 4.445 13.938 11.854 13.938 7.452 0 11.897-5.244 11.897-13.938m-17.21 0c0-6.703 1.822-9.304 5.322-9.304 3.534 0 5.356 2.6 5.356 9.304 0 6.737-1.788 9.346-5.356 9.346-3.424 0-5.323-2.609-5.323-9.346"/><path fill="#0c639e" d="M33.33.615h-7.425L.552 43.89l3.27 4.833h51.6l3.38-4.833L33.331.615Zm-3.653 42.09H8.32L29.677 5.602l21.358 37.094H29.677Zm16.794-3.45-.928 1.33H31.32l-.903-1.33 6.983-11.922h2.044l7.026 11.922Zm-17.51-.009-.936 1.33H13.82l-.902-1.33L19.9 27.325h2.044l7.017 11.921ZM37.7 24.278l-.928 1.33H22.55l-.902-1.33 6.983-11.922h2.044l7.025 11.922Z"/><path fill="#77ae54" d="M28.945 36.56h1.49l5.118-8.729-.664-.978H24.482l-.68.978Z"/></svg>