<svg xmlns="http://www.w3.org/2000/svg" xml:space="preserve" width="256" height="256"><g style="stroke:none;stroke-width:0;stroke-dasharray:none;stroke-linecap:butt;stroke-linejoin:miter;stroke-miterlimit:10;fill:none;fill-rule:nonzero;opacity:1"><path d="M75.6 90H14.4C6.447 90 0 83.553 0 75.6V14.4C0 6.447 6.447 0 14.4 0h61.2C83.553 0 90 6.447 90 14.4v61.2C90 83.553 83.553 90 75.6 90z" style="stroke:none;stroke-width:1;stroke-dasharray:none;stroke-linecap:butt;stroke-linejoin:miter;stroke-miterlimit:10;fill:#fe0001;fill-rule:nonzero;opacity:1" transform="matrix(2.81 0 0 2.81 1.407 1.407)"/><path d="M41.988 37.316c-.646-.436-1.105-1.113-1.378-2.031-.273-.918-.409-2.14-.409-3.666v-2.078c0-1.541.155-2.779.467-3.712.311-.934.798-1.615 1.459-2.043.661-.428 1.529-.642 2.603-.642 1.058 0 1.907.218 2.545.654.638.436 1.105 1.117 1.401 2.043.296.926.444 2.16.444 3.701v2.078c0 1.526-.144 2.751-.432 3.677-.288.926-.755 1.603-1.401 2.031-.646.428-1.522.642-2.627.642-1.135-.001-2.027-.219-2.672-.654zm3.619-2.242c.179-.467.268-1.229.268-2.288v-4.46c0-1.027-.09-1.778-.268-2.253-.179-.475-.494-.712-.946-.712-.436 0-.743.238-.922.712-.179.475-.268 1.226-.268 2.253v4.46c0 1.059.085 1.821.257 2.288.171.467.482.7.934.7.45.001.766-.233.945-.7zM34.142 31.385l-3.666-13.238h3.199l1.284 6.001c.327 1.479.568 2.74.724 3.782h.093c.109-.747.35-2 .724-3.759l1.331-6.024h3.199l-3.712 13.238v6.351h-3.175v-6.351zM59.524 23.423v14.312h-2.522l-.28-1.751h-.07c-.685 1.323-1.713 1.985-3.082 1.985-.95 0-1.65-.311-2.101-.934-.452-.622-.677-1.595-.677-2.919V23.423h3.222V33.93c0 .638.07 1.094.21 1.366.14.273.374.409.7.409.28 0 .549-.085.806-.257a1.59 1.59 0 0 0 .572-.654v-11.37h3.222zM65.245 71.854h-40.49a7.776 7.776 0 0 1-7.776-7.776V50.913a7.776 7.776 0 0 1 7.776-7.776h40.49a7.776 7.776 0 0 1 7.776 7.776v13.164a7.776 7.776 0 0 1-7.776 7.777z" style="stroke:none;stroke-width:1;stroke-dasharray:none;stroke-linecap:butt;stroke-linejoin:miter;stroke-miterlimit:10;fill:#fff;fill-rule:nonzero;opacity:1" transform="matrix(2.81 0 0 2.81 1.407 1.407)"/><path d="M58.727 61.452v.724c0 .919.027 1.607.082 2.066.054.459.167.794.339 1.004.171.21.435.315.794.315.482 0 .813-.187.992-.56.179-.374.276-.996.292-1.868l2.778.163c.015.125.023.296.023.514 0 1.323-.362 2.312-1.086 2.965-.724.654-1.747.981-3.07.981-1.588 0-2.701-.498-3.339-1.494-.638-.996-.957-2.537-.957-4.623V59.14c0-2.148.331-3.716.992-4.705.661-.988 1.794-1.483 3.397-1.483 1.105 0 1.953.203 2.545.607.591.405 1.008 1.035 1.249 1.891.242.858.363 2.041.363 3.55v2.452h-5.394zm.409-6.024c-.163.202-.272.533-.327.992-.055.459-.082 1.156-.082 2.09v1.027h2.358V58.51c0-.918-.031-1.615-.093-2.09-.062-.475-.175-.809-.339-1.004-.164-.195-.417-.292-.759-.292-.342.001-.595.102-.758.304zM43.2 53.223v14.312h-2.522l-.28-1.751h-.07c-.685 1.323-1.713 1.985-3.082 1.985-.95 0-1.65-.311-2.101-.934-.452-.622-.677-1.595-.677-2.919V53.223h3.222V63.73c0 .638.07 1.094.21 1.366.14.273.374.409.7.409.28 0 .549-.085.806-.257a1.59 1.59 0 0 0 .572-.654v-11.37H43.2z" style="stroke:none;stroke-width:1;stroke-dasharray:none;stroke-linecap:butt;stroke-linejoin:miter;stroke-miterlimit:10;fill:#fe0001;fill-rule:nonzero;opacity:1" transform="matrix(2.81 0 0 2.81 1.407 1.407)"/><path d="M35.429 50.538H32.23v16.997h-3.152V50.538h-3.199v-2.592h9.549v2.592zM53.864 55.511c-.195-.903-.51-1.556-.946-1.961-.436-.405-1.035-.607-1.798-.607-.592 0-1.144.167-1.658.502a3.414 3.414 0 0 0-1.191 1.319h-.024v-7.542h-3.105v20.313h2.662l.327-1.354h.07c.249.483.622.864 1.121 1.144.498.28 1.051.42 1.658.42 1.089 0 1.891-.502 2.405-1.506.514-1.004.771-2.572.771-4.705V59.27c0-1.603-.098-2.856-.292-3.759zm-2.953 5.838c0 1.043-.043 1.86-.128 2.451-.086.592-.23 1.012-.432 1.261-.202.249-.475.374-.817.374-.265 0-.51-.062-.735-.187a1.403 1.403 0 0 1-.549-.56v-8.125c.109-.389.295-.708.56-.957.264-.249.552-.374.864-.374a.87.87 0 0 1 .759.385c.179.257.303.689.374 1.296.07.607.105 1.471.105 2.592v1.844z" style="stroke:none;stroke-width:1;stroke-dasharray:none;stroke-linecap:butt;stroke-linejoin:miter;stroke-miterlimit:10;fill:#fe0001;fill-rule:nonzero;opacity:1" transform="matrix(2.81 0 0 2.81 1.407 1.407)"/></g></svg>